USFL
nRows=175
nColumns=2
inDegrees=yes
endheader
time	med_gas_r	
3.9375	 55.160191	
4	 59.368903	
4.0625	 59.367559	
4.125	 59.420365	
4.1875	 59.533226	
4.25	 59.460404	
4.3125	 59.723275	
4.375	 60.011786	
4.4375	 59.994955	
4.5	 60.066595	
4.5625	 60.128019	
4.625	 60.007342	
4.6875	 59.832598	
4.75	 59.811899	
4.8125	 59.663981	
4.875	 59.607827	
4.9375	 59.537429	
5	 59.505693	
5.0625	 59.502628	
5.125	 59.586949	
5.1875	 59.515748	
5.25	 59.583161	
5.3125	 59.830345	
5.375	 59.746830	
5.4375	 59.555540	
5.5	 59.494750	
5.5625	 59.345676	
5.625	 59.378149	
5.6875	 59.389874	
5.75	 59.464723	
5.8125	 59.583551	
5.875	 59.584092	
5.9375	 59.544212	
6	 52.144697	
6.0625	 52.074926	
6.125	 52.211114	
6.1875	 52.027471	
6.25	 51.845661	
6.3125	 49.680831	
6.375	 45.883511	
6.4375	 45.828952	
6.5	 45.488527	
6.5625	 41.467111	
6.625	 41.405913	
6.6875	 40.462620	
6.75	 38.345346	
6.8125	 36.781389	
6.875	 36.480266	
6.9375	 36.593079	
7	 36.549879	
7.0625	 36.846659	
7.125	 37.033361	
7.1875	 37.016725	
7.25	 36.787522	
7.3125	 36.798533	
7.375	 36.982114	
7.4375	 36.992793	
7.5	 36.937915	
7.5625	 35.959707	
7.625	 35.944386	
7.6875	 35.611716	
7.75	 35.633980	
7.8125	 35.654059	
7.875	 35.748002	
7.9375	 35.911494	
8	 35.955902	
8.0625	 35.316106	
8.125	 35.390756	
8.1875	 35.533705	
8.25	 35.693949	
8.3125	 35.748773	
8.375	 35.942561	
8.4375	 36.363075	
8.5	 36.379846	
8.5625	 36.309500	
8.625	 36.367511	
8.6875	 36.545105	
8.75	 36.605141	
8.8125	 36.757866	
8.875	 36.881531	
8.9375	 36.788253	
9	 36.847387	
9.0625	 36.948927	
9.125	 37.109105	
9.1875	 36.954223	
9.25	 36.821617	
9.3125	 36.860926	
9.375	 36.819809	
9.4375	 36.892232	
9.5	 36.661761	
9.5625	 36.628834	
9.625	 36.583848	
9.6875	 36.747763	
9.75	 36.838063	
9.8125	 36.837498	
9.875	 36.943718	
9.9375	 36.896950	
10	 36.911016	
10.0625	 36.793322	
10.125	 36.797763	
10.1875	 36.744111	
10.25	 36.717302	
10.3125	 36.744894	
10.375	 36.749997	
10.4375	 36.743195	
10.5	 36.835933	
10.5625	 36.855423	
10.625	 36.907922	
10.6875	 36.934371	
10.75	 36.954057	
10.8125	 36.847295	
10.875	 36.855297	
10.9375	 36.848017	
11	 36.843230	
11.0625	 36.831977	
11.125	 36.742763	
11.1875	 36.845154	
11.25	 36.899909	
11.3125	 36.916427	
11.375	 36.887145	
11.4375	 36.917841	
11.5	 36.932846	
11.5625	 37.056046	
11.625	 37.039710	
11.6875	 37.002915	
11.75	 37.280557	
11.8125	 39.267648	
11.875	 42.664806	
11.9375	 45.145964	
12	 49.474141	
12.0625	 51.446125	
12.125	 51.308152	
12.1875	 55.091725	
12.25	 56.962307	
12.3125	 58.359993	
12.375	 58.342655	
12.4375	 58.272767	
12.5	 58.390251	
12.5625	 58.432750	
12.625	 58.527472	
12.6875	 58.675590	
12.75	 58.737442	
12.8125	 58.761885	
12.875	 58.886426	
12.9375	 58.884979	
13	 58.868830	
13.0625	 58.874354	
13.125	 58.872273	
13.1875	 58.849713	
13.25	 58.891854	
13.3125	 58.811025	
13.375	 58.893314	
13.4375	 59.015862	
13.5	 59.042759	
13.5625	 58.951819	
13.625	 59.047396	
13.6875	 59.226997	
13.75	 59.148587	
13.8125	 59.255433	
13.875	 59.153689	
13.9375	 59.056867	
14	 59.051018	
14.0625	 59.364239	
14.125	 59.290010	
14.1875	 59.459540	
14.25	 59.396915	
14.3125	 59.319012	
14.375	 59.478889	
14.4375	 59.402303	
14.5	 59.212941	
14.5625	 59.276055	
14.625	 59.287612	
14.6875	 59.425107	
14.75	 59.688603	
14.8125	 59.936683	
